<?xml version="1.0" encoding="utf-8"?>
<!-- Generator: Adobe Illustrator 27.5.0, SVG Export Plug-In . SVG Version: 6.00 Build 0)  -->
<svg version="1.1" id="Layer_1" xmlns="http://www.w3.org/2000/svg" xmlns:xlink="http://www.w3.org/1999/xlink" x="0px" y="0px"
	 viewBox="0 0 2372 1898" style="enable-background:new 0 0 2372 1898;" xml:space="preserve">
<g>
	<rect y="0" style="fill:#FFFFFF;" width="2371.708" height="1897.367"/>
	
		<radialGradient id="SVGID_1_" cx="-734.0013" cy="5974.771" r="338.5494" gradientTransform="matrix(1.6778 0 0 0.4196 2104.6719 -826.7397)" gradientUnits="userSpaceOnUse">
		<stop  offset="0" style="stop-color:#FFD81A"/>
		<stop  offset="0.0069" style="stop-color:#FFD91E"/>
		<stop  offset="0.1141" style="stop-color:#FFE252"/>
		<stop  offset="0.2258" style="stop-color:#FFE980"/>
		<stop  offset="0.34" style="stop-color:#FFF0A7"/>
		<stop  offset="0.457" style="stop-color:#FFF5C7"/>
		<stop  offset="0.5779" style="stop-color:#FFFAE0"/>
		<stop  offset="0.7043" style="stop-color:#FFFDF1"/>
		<stop  offset="0.8397" style="stop-color:#FFFEFC"/>
		<stop  offset="1" style="stop-color:#FFFFFF"/>
	</radialGradient>
	<ellipse style="fill:url(#SVGID_1_);" cx="873.165" cy="1680.274" rx="567.994" ry="142.061"/>
	
		<radialGradient id="SVGID_00000023964861201634467020000015944409534829238716_" cx="-379.972" cy="5974.771" r="338.5494" gradientTransform="matrix(1.6778 0 0 0.4196 2104.6719 -826.7397)" gradientUnits="userSpaceOnUse">
		<stop  offset="0" style="stop-color:#60ADFF"/>
		<stop  offset="0.0956" style="stop-color:#81BEFF"/>
		<stop  offset="0.2272" style="stop-color:#A7D2FF"/>
		<stop  offset="0.3642" style="stop-color:#C7E2FF"/>
		<stop  offset="0.5057" style="stop-color:#E0EFFF"/>
		<stop  offset="0.6536" style="stop-color:#F1F8FF"/>
		<stop  offset="0.8122" style="stop-color:#FCFDFF"/>
		<stop  offset="1" style="stop-color:#FFFFFF"/>
	</radialGradient>
	
		<ellipse style="opacity:0.4;fill:url(#SVGID_00000023964861201634467020000015944409534829238716_);" cx="1467.155" cy="1680.274" rx="567.994" ry="142.061"/>
	<g>
		<g style="enable-background:new    ;">
			<g>
				
					<linearGradient id="SVGID_00000047053068182041238880000013342681287687635592_" gradientUnits="userSpaceOnUse" x1="766.1871" y1="513.7955" x2="348.7314" y2="1620.78">
					<stop  offset="0" style="stop-color:#FFEC1A"/>
					<stop  offset="0.2262" style="stop-color:#FFD41A"/>
					<stop  offset="0.7011" style="stop-color:#FF971A"/>
					<stop  offset="1" style="stop-color:#FF6D1A"/>
				</linearGradient>
				<path style="fill:url(#SVGID_00000047053068182041238880000013342681287687635592_);" d="M1036.009,539.213
					c-9.256-1.743-18.891-2.224-28.721-1.288c-1.451,0.138-2.895,0.305-4.353,0.505L424.27,617.659
					c-1.868,0.256-3.718,0.562-5.552,0.913c-0.556,0.106-1.099,0.246-1.651,0.361c-1.271,0.264-2.542,0.523-3.796,0.833
					c-0.716,0.177-1.416,0.391-2.125,0.582c-1.072,0.288-2.152,0.563-3.211,0.884c-0.775,0.235-1.534,0.508-2.302,0.76
					c-0.938,0.307-1.883,0.596-2.81,0.928c-0.032,0.012-0.063,0.026-0.096,0.038c-2.074,0.747-4.114,1.571-6.128,2.44
					c-0.573,0.247-1.136,0.512-1.704,0.769c-1.488,0.673-2.959,1.376-4.411,2.114c-0.593,0.3-1.186,0.599-1.772,0.91
					c-1.723,0.914-3.421,1.868-5.089,2.871c-0.209,0.125-0.424,0.238-0.631,0.365c-1.86,1.135-3.677,2.336-5.466,3.577
					c-0.168,0.117-0.347,0.219-0.515,0.336c-0.325,0.229-0.63,0.486-0.954,0.719c-1.38,0.99-2.737,2.011-4.071,3.063
					c-0.503,0.397-1.008,0.789-1.504,1.194c-1.724,1.407-3.421,2.848-5.062,4.355c-0.025,0.023-0.049,0.049-0.075,0.072
					c-1.616,1.486-3.178,3.034-4.709,4.612c-0.45,0.463-0.889,0.936-1.332,1.407c-1.17,1.246-2.312,2.519-3.429,3.817
					c-0.261,0.302-0.543,0.584-0.8,0.889c-0.148,0.177-0.285,0.363-0.433,0.54c-0.724,0.87-1.424,1.76-2.124,2.651
					c-0.48,0.61-0.968,1.211-1.436,1.831c-0.734,0.972-1.437,1.967-2.142,2.962c-0.404,0.57-0.822,1.128-1.215,1.705
					c-0.856,1.253-1.675,2.533-2.484,3.82c-0.213,0.339-0.44,0.665-0.65,1.007c-1.005,1.635-1.973,3.297-2.902,4.984
					c-0.27,0.488-0.515,0.992-0.777,1.484c-0.646,1.211-1.289,2.424-1.896,3.658c-0.326,0.665-0.626,1.345-0.941,2.017
					c-0.507,1.083-1.016,2.164-1.493,3.264c-0.322,0.742-0.619,1.496-0.926,2.245c-0.431,1.052-0.862,2.104-1.266,3.17
					c-0.297,0.787-0.573,1.582-0.855,2.375c-0.373,1.051-0.741,2.102-1.086,3.166c-0.266,0.82-0.514,1.647-0.764,2.474
					c-0.318,1.053-0.626,2.11-0.916,3.175c-0.23,0.844-0.447,1.692-0.659,2.543c-0.268,1.073-0.522,2.151-0.761,3.234
					c-0.189,0.856-0.371,1.713-0.542,2.575c-0.216,1.09-0.414,2.185-0.602,3.284c-0.148,0.87-0.294,1.74-0.424,2.616
					c-0.165,1.115-0.306,2.235-0.441,3.357c-0.105,0.869-0.213,1.736-0.299,2.61c-0.114,1.154-0.198,2.314-0.279,3.476
					c-0.06,0.853-0.128,1.703-0.171,2.559c-0.06,1.223-0.083,2.453-0.106,3.682c-0.016,0.804-0.048,1.606-0.047,2.413
					c0,1.364,0.046,2.736,0.092,4.108c0.023,0.681,0.023,1.359,0.057,2.042c0.103,2.057,0.251,4.12,0.458,6.19l61.17,612.499
					c5.165,51.574,41.568,90.847,87.216,99.445l79.606,14.995c-45.647-8.598-82.051-47.87-87.216-99.445l-61.17-612.499
					c-0.207-2.07-0.356-4.133-0.458-6.19c-0.034-0.683-0.034-1.36-0.057-2.042c-0.046-1.372-0.092-2.744-0.092-4.108
					c-0.001-0.808,0.031-1.609,0.047-2.413c0.023-1.23,0.046-2.46,0.106-3.682c0.042-0.857,0.111-1.707,0.171-2.56
					c0.082-1.161,0.165-2.323,0.279-3.477c0.086-0.872,0.194-1.739,0.298-2.607c0.135-1.123,0.275-2.244,0.441-3.359
					c0.13-0.876,0.276-1.747,0.424-2.617c0.188-1.099,0.385-2.194,0.602-3.284c0.171-0.861,0.352-1.719,0.542-2.575
					c0.239-1.084,0.493-2.163,0.761-3.237c0.212-0.849,0.429-1.696,0.659-2.538c0.289-1.066,0.599-2.124,0.917-3.178
					c0.248-0.827,0.497-1.654,0.763-2.474c0.345-1.063,0.714-2.115,1.086-3.166c0.282-0.793,0.558-1.589,0.855-2.375
					c0.403-1.066,0.834-2.119,1.266-3.171c0.307-0.749,0.605-1.503,0.926-2.245c0.476-1.1,0.985-2.181,1.492-3.265
					c0.315-0.672,0.615-1.352,0.941-2.016c0.607-1.235,1.25-2.448,1.896-3.658c0.263-0.493,0.508-0.995,0.777-1.484
					c0.93-1.687,1.898-3.351,2.904-4.987c0.2-0.325,0.418-0.637,0.621-0.961c0.818-1.303,1.648-2.598,2.513-3.866
					c0.392-0.574,0.808-1.129,1.209-1.696c0.705-0.995,1.409-1.992,2.143-2.964c0.469-0.622,0.96-1.225,1.441-1.837
					c0.7-0.891,1.4-1.783,2.125-2.652c0.401-0.482,0.818-0.949,1.227-1.423c1.118-1.299,2.262-2.574,3.432-3.82
					c0.443-0.471,0.883-0.944,1.333-1.408c1.526-1.573,3.082-3.115,4.692-4.596c0.032-0.03,0.063-0.061,0.095-0.09
					c1.638-1.505,3.333-2.944,5.055-4.349c0.498-0.407,1.005-0.802,1.511-1.2c1.331-1.049,2.687-2.069,4.064-3.058
					c0.492-0.354,0.978-0.715,1.476-1.061c1.788-1.24,3.604-2.44,5.463-3.574c0.208-0.127,0.424-0.241,0.633-0.366
					c1.667-1.003,3.365-1.955,5.086-2.869c0.586-0.311,1.181-0.61,1.773-0.911c1.453-0.737,2.923-1.441,4.411-2.114
					c0.568-0.257,1.13-0.521,1.703-0.768c2.014-0.868,4.051-1.692,6.124-2.438c1.001-0.36,2.022-0.678,3.037-1.009
					c0.724-0.237,1.438-0.495,2.17-0.717c1.084-0.328,2.187-0.61,3.285-0.905c0.686-0.184,1.363-0.393,2.055-0.563
					c1.253-0.309,2.526-0.568,3.796-0.833c0.552-0.115,1.095-0.254,1.651-0.361c1.833-0.351,3.685-0.657,5.552-0.912l578.665-79.229
					c1.459-0.2,2.903-0.368,4.353-0.506c9.831-0.936,19.466-0.455,28.721,1.289L1036.009,539.213z"/>
				
					<linearGradient id="SVGID_00000024680816430439148280000018210330533967443115_" gradientUnits="userSpaceOnUse" x1="763.1971" y1="1652.7289" x2="827.5696" y2="1389.0081">
					<stop  offset="0" style="stop-color:#FFEC1A"/>
					<stop  offset="0.2262" style="stop-color:#FFD41A"/>
					<stop  offset="0.7011" style="stop-color:#FF971A"/>
					<stop  offset="1" style="stop-color:#FF6D1A"/>
				</linearGradient>
				<polygon style="fill:url(#SVGID_00000024680816430439148280000018210330533967443115_);" points="713.073,1432.41 
					810.173,1544.819 889.779,1559.814 792.68,1447.405 				"/>
			</g>
			<g>
				
					<linearGradient id="SVGID_00000147905077184477492880000000789587856679271319_" gradientUnits="userSpaceOnUse" x1="678.0143" y1="1155.4318" x2="1220.0824" y2="669.4391">
					<stop  offset="0" style="stop-color:#FFEC1A"/>
					<stop  offset="0.1509" style="stop-color:#FFE71A"/>
					<stop  offset="0.3382" style="stop-color:#FFD71A"/>
					<stop  offset="0.5448" style="stop-color:#FFBE1A"/>
					<stop  offset="0.7653" style="stop-color:#FF9B1A"/>
					<stop  offset="0.9946" style="stop-color:#FF6E1A"/>
					<stop  offset="1" style="stop-color:#FF6D1A"/>
				</linearGradient>
				<path style="fill:url(#SVGID_00000147905077184477492880000000789587856679271319_);" d="M1086.895,552.92
					c58.272-5.548,109.702,38.682,115.913,100.702l61.173,612.541c6.326,63.568-37.176,121.787-97.267,129.989l-204.588,28.014
					l-72.345,135.648l-97.1-112.41l-204.589,28.014c-1.434,0.196-2.861,0.361-4.287,0.497
					c-58.343,5.555-109.769-38.688-115.983-100.735l-61.17-612.498c-6.368-63.607,37.176-121.788,97.225-130.028l578.665-79.229
					C1083.999,553.225,1085.444,553.058,1086.895,552.92z"/>
			</g>
		</g>
	</g>
	<g>
		
			<linearGradient id="SVGID_00000100360358514046928500000007100944069017496238_" gradientUnits="userSpaceOnUse" x1="1339.1884" y1="727.9378" x2="1128.7305" y2="1168.2383">
			<stop  offset="0" style="stop-color:#76C8FF"/>
			<stop  offset="0.2035" style="stop-color:#62B0FF"/>
			<stop  offset="0.6306" style="stop-color:#3073FF"/>
			<stop  offset="1" style="stop-color:#0039FF"/>
		</linearGradient>
		<path style="fill:url(#SVGID_00000100360358514046928500000007100944069017496238_);" d="M1318.792,1024.001l-214.252-5.145
			c-19.394-0.466-37.335-5.749-52.751-14.68c-9.25-5.357-17.592-12.028-24.792-19.758l0.005,0.007
			c-0.001-0.002-0.003-0.004-0.005-0.006l45.258,48.579c19.203,20.613,46.514,33.691,77.544,34.437l214.251,5.145L1318.792,1024.001
			z"/>
		
			<linearGradient id="SVGID_00000125580798103779306280000000603115863192697003_" gradientUnits="userSpaceOnUse" x1="1504.941" y1="855.5471" x2="1444.7109" y2="1304.1554">
			<stop  offset="0" style="stop-color:#76C8FF"/>
			<stop  offset="0.2035" style="stop-color:#62B0FF"/>
			<stop  offset="0.6306" style="stop-color:#3073FF"/>
			<stop  offset="1" style="stop-color:#0039FF"/>
		</linearGradient>
		<polygon style="fill:url(#SVGID_00000125580798103779306280000000603115863192697003_);" points="1496.196,1028.261 
			1399.365,1148.645 1444.623,1197.224 1541.455,1076.84 		"/>
		
			<linearGradient id="SVGID_00000029016529845418641460000010803565633105295033_" gradientUnits="userSpaceOnUse" x1="1447.6238" y1="287.77" x2="1971.0002" y2="1072.8337">
			<stop  offset="0" style="stop-color:#76C8FF"/>
			<stop  offset="0.2035" style="stop-color:#62B0FF"/>
			<stop  offset="0.6306" style="stop-color:#3073FF"/>
			<stop  offset="1" style="stop-color:#0039FF"/>
		</linearGradient>
		<path style="fill:url(#SVGID_00000029016529845418641460000010803565633105295033_);" d="M1917.347,358.081
			c-0.001-1.189,0.011-2.382-0.026-3.562c-0.002-0.088-0.012-0.174-0.015-0.262c-0.067-1.948-0.182-3.884-0.347-5.804
			c-0.008-0.082-0.009-0.167-0.016-0.249c-0.177-2.004-0.413-3.988-0.694-5.958c-0.092-0.64-0.216-1.27-0.318-1.906
			c-0.213-1.321-0.427-2.642-0.686-3.946c-0.152-0.765-0.334-1.517-0.501-2.277c-0.256-1.161-0.513-2.32-0.806-3.466
			c-0.204-0.798-0.432-1.586-0.653-2.377c-0.305-1.09-0.614-2.177-0.951-3.253c-0.251-0.801-0.52-1.592-0.788-2.384
			c-0.355-1.046-0.719-2.088-1.104-3.119c-0.295-0.789-0.601-1.571-0.913-2.352c-0.407-1.016-0.828-2.024-1.264-3.025
			c-0.334-0.767-0.674-1.53-1.026-2.287c-0.46-0.992-0.939-1.972-1.427-2.947c-0.229-0.456-0.434-0.926-0.668-1.378
			c-0.084-0.163-0.192-0.31-0.278-0.472c-1.566-2.98-3.272-5.873-5.101-8.68c-0.208-0.319-0.408-0.642-0.619-0.958
			c-1.884-2.826-3.903-5.551-6.041-8.179c-0.13-0.161-0.237-0.34-0.37-0.501c-0.113-0.137-0.237-0.264-0.35-0.4
			c-1.291-1.553-2.614-3.078-3.99-4.555c-0.007-0.009-0.014-0.017-0.021-0.026l-45.259-48.579c1.385,1.486,2.716,3.021,4.014,4.583
			c0.244,0.293,0.474,0.598,0.714,0.893c2.139,2.631,4.16,5.359,6.047,8.187c0.209,0.314,0.408,0.635,0.613,0.95
			c1.83,2.808,3.538,5.703,5.104,8.684c0.323,0.613,0.636,1.231,0.946,1.851c0.488,0.974,0.967,1.954,1.426,2.945
			c0.352,0.76,0.694,1.526,1.03,2.296c0.434,0.996,0.853,2,1.258,3.011c0.314,0.784,0.621,1.569,0.918,2.361
			c0.385,1.031,0.748,2.072,1.102,3.117c0.268,0.792,0.538,1.584,0.789,2.384c0.337,1.076,0.646,2.164,0.95,3.253
			c0.221,0.791,0.45,1.578,0.653,2.376c0.294,1.152,0.552,2.317,0.809,3.483c0.166,0.752,0.347,1.497,0.497,2.255
			c0.26,1.31,0.476,2.636,0.69,3.963c0.102,0.632,0.225,1.258,0.316,1.893c0.283,1.973,0.518,3.959,0.696,5.964
			c0.003,0.044,0.003,0.088,0.008,0.132c0.17,1.959,0.286,3.934,0.354,5.922c0.043,1.239,0.039,2.49,0.041,3.74
			c0.001,0.655,0.024,1.304,0.014,1.961c-0.031,1.919-0.106,3.849-0.235,5.79l-40.054,605.211c-0.132,1.988-0.316,3.961-0.546,5.922
			c-0.08,0.679-0.196,1.347-0.288,2.023c-0.173,1.275-0.337,2.553-0.551,3.815c-0.037,0.22-0.089,0.435-0.128,0.655
			c-0.392,2.239-0.861,4.451-1.38,6.645c-0.154,0.652-0.314,1.3-0.478,1.948c-0.538,2.111-1.125,4.205-1.775,6.27
			c-0.087,0.275-0.16,0.556-0.248,0.83c-0.673,2.084-1.412,4.141-2.196,6.175c-0.218,0.562-0.457,1.113-0.683,1.671
			c-0.599,1.482-1.221,2.952-1.878,4.405c-0.31,0.687-0.63,1.37-0.954,2.049c-0.613,1.29-1.252,2.566-1.91,3.83
			c-0.333,0.64-0.661,1.284-1.005,1.918c-0.806,1.483-1.649,2.944-2.517,4.388c-0.221,0.368-0.426,0.747-0.651,1.112
			c-1.123,1.827-2.299,3.619-3.515,5.38c-0.325,0.472-0.671,0.929-1.004,1.395c-0.919,1.291-1.857,2.567-2.826,3.819
			c-0.424,0.547-0.856,1.088-1.288,1.628c-1.13,1.409-2.289,2.792-3.478,4.149c-0.351,0.4-0.691,0.808-1.046,1.203
			c-1.522,1.69-3.09,3.339-4.703,4.941c-0.281,0.279-0.574,0.546-0.858,0.822c-1.829,1.78-3.712,3.502-5.648,5.164
			c-0.288,0.247-0.567,0.503-0.856,0.748c-2.059,1.735-4.185,3.388-6.355,4.982c-0.447,0.329-0.897,0.654-1.351,0.977
			c-2.239,1.599-4.524,3.137-6.87,4.581c-0.315,0.194-0.639,0.374-0.956,0.565c-2.281,1.376-4.608,2.679-6.98,3.903
			c-0.287,0.147-0.565,0.307-0.853,0.452c-2.474,1.251-5.004,2.399-7.568,3.478c-0.507,0.213-1.014,0.427-1.525,0.633
			c-2.554,1.034-5.145,1.989-7.778,2.845c-0.428,0.139-0.862,0.263-1.291,0.397c-2.621,0.819-5.272,1.563-7.96,2.198
			c-0.19,0.045-0.376,0.101-0.567,0.145c-2.773,0.641-5.587,1.154-8.423,1.594c-0.54,0.083-1.078,0.171-1.621,0.247
			c-2.779,0.39-5.583,0.683-8.412,0.871c-0.511,0.034-1.026,0.053-1.539,0.08c-2.962,0.157-5.94,0.239-8.946,0.166l-214.211-5.144
			l45.259,48.579l214.21,5.144c3.005,0.073,5.984-0.008,8.946-0.166c0.513-0.027,1.028-0.045,1.54-0.08
			c2.829-0.188,5.631-0.481,8.411-0.871c0.543-0.076,1.081-0.164,1.621-0.248c2.835-0.438,5.649-0.952,8.423-1.593
			c0.192-0.045,0.38-0.1,0.572-0.146c2.686-0.636,5.334-1.378,7.954-2.197c0.432-0.134,0.866-0.258,1.295-0.397
			c2.632-0.856,5.221-1.811,7.774-2.844c0.513-0.208,1.02-0.42,1.529-0.635c2.562-1.078,5.091-2.225,7.564-3.476
			c0.29-0.146,0.571-0.306,0.859-0.455c2.371-1.223,4.696-2.525,6.975-3.9c0.317-0.191,0.64-0.371,0.956-0.565
			c2.346-1.445,4.631-2.981,6.87-4.581c0.228-0.163,0.472-0.301,0.698-0.465c0.224-0.163,0.43-0.349,0.653-0.512
			c2.17-1.595,4.296-3.248,6.354-4.983c0.29-0.244,0.569-0.5,0.856-0.747c1.939-1.665,3.824-3.388,5.655-5.172
			c0.188-0.183,0.395-0.347,0.582-0.532c0.093-0.091,0.176-0.19,0.267-0.281c1.613-1.602,3.181-3.25,4.704-4.941
			c0.358-0.399,0.702-0.811,1.055-1.215c1.185-1.352,2.341-2.729,3.465-4.134c0.234-0.292,0.49-0.565,0.72-0.858
			c0.2-0.254,0.38-0.525,0.578-0.781c0.965-1.248,1.901-2.521,2.818-3.807c0.334-0.469,0.68-0.928,1.007-1.402
			c1.216-1.76,2.39-3.549,3.512-5.375c0.038-0.061,0.08-0.119,0.117-0.18c0.192-0.313,0.36-0.642,0.549-0.957
			c0.862-1.438,1.701-2.892,2.504-4.368c0.344-0.635,0.673-1.277,1.006-1.918c0.659-1.265,1.297-2.54,1.91-3.83
			c0.177-0.371,0.377-0.729,0.549-1.102c0.145-0.312,0.264-0.636,0.405-0.949c0.656-1.451,1.278-2.919,1.876-4.4
			c0.227-0.559,0.466-1.112,0.684-1.675c0.785-2.032,1.522-4.087,2.195-6.17c0.02-0.063,0.046-0.122,0.065-0.185
			c0.071-0.218,0.119-0.445,0.188-0.664c0.65-2.063,1.236-4.154,1.773-6.263c0.164-0.644,0.323-1.287,0.476-1.934
			c0.52-2.204,0.992-4.425,1.386-6.672c0.028-0.166,0.073-0.326,0.102-0.491c0.008-0.046,0.012-0.092,0.02-0.137
			c0.223-1.314,0.395-2.644,0.573-3.971c0.084-0.624,0.193-1.241,0.267-1.867c0.231-1.962,0.414-3.938,0.546-5.927l40.054-605.211
			c0.129-1.943,0.204-3.874,0.235-5.796C1917.371,359.328,1917.347,358.707,1917.347,358.081z"/>
		<g>
			
				<linearGradient id="SVGID_00000132770871817822016520000011266562264957237397_" gradientUnits="userSpaceOnUse" x1="1718.0696" y1="1049.6771" x2="646.3927" y2="-615.9904">
				<stop  offset="0" style="stop-color:#76C8FF"/>
				<stop  offset="0.2035" style="stop-color:#62B0FF"/>
				<stop  offset="0.6306" style="stop-color:#3073FF"/>
				<stop  offset="1" style="stop-color:#0039FF"/>
			</linearGradient>
			<path style="fill:url(#SVGID_00000132770871817822016520000011266562264957237397_);" d="M1765.516,200.726
				c62.908,1.511,110.508,53.649,106.351,116.448l-40.054,605.211c-4.159,62.84-58.498,112.53-121.406,111.02l-214.211-5.144
				l-96.831,120.384l-80.573-124.644l-214.252-5.145c-62.867-1.51-110.467-53.648-106.308-116.488l40.054-605.211
				c4.156-62.799,58.496-112.489,121.362-110.979L1765.516,200.726z"/>
		</g>
	</g>
</g>
</svg>
